# xmcd
# Track frame offsets:
# 150
# 16276
# 31402
# 52017
# 68647
# 87796
# 107673
# 124497
# 144619
# 161911
# 173982
# 187100
# 199653
# 220936
#
# Disc length: 3228 seconds
# Revision: 0
# Processed by: cddbd v1.5.2PL0 Copyright (c) Steve Scherf et al.
# Submitted via: VisiTrax 2.11.3.279 - For more info visit www.synapsa.com
#
DISCID=cf0c9a0e
DTITLE=Various Artist - Trouble In The Fields - An Artists Tribute To Nanc
DTITLE=i Griffith
DYEAR=2012
DGENRE=Country
TTITLE0=Sarah Hickman - Listen To The Radio
TTITLE1=Caroline Doctorow - Trouble In The Fields
TTITLE2=The Kennedys - I'm Not Drivin' These Wheels
TTITLE3=Tom Russell - If I were A Child
TTITLE4=Eric Brace and Last Train Home - I Wish It Would Rain
TTITLE5=Amy Rigby - The Flyer
TTITLE6=Jerry Jeff Walker - Talk To Me While I'm Listening
TTITLE7=Tracy Grammer and Jim Henry - Gulf Coast Highway
TTITLE8=Edwina Hayes - It's A Hard Life Whereever You Go
TTITLE9=John Stewart - Last Of The True Believers
TTITLE10=Julie Gold - Anyone Can Be Somebod's Fool
TTITLE11=Red Molly - Lookin' For The Time
TTITLE12=Carolyn Hester - I Don't Wanna Talk About Love
TTITLE13=Stacy Earle and Mark Stuart - Love At The Five and Dime
EXTD=
EXTT0=
EXTT1=
EXTT2=
EXTT3=
EXTT4=
EXTT5=
EXTT6=
EXTT7=
EXTT8=
EXTT9=
EXTT10=
EXTT11=
EXTT12=
EXTT13=
PLAYORDER=
